<svg xmlns="http://www.w3.org/2000/svg" version="1.1" xmlns:xlink="http://www.w3.org/1999/xlink" viewBox="0 0 200 200" width="200" height="200"><rect width="200" height="200" fill="url('#gradient')"></rect><defs><linearGradient id="gradient" gradientTransform="rotate(86 0.5 0.5)"><stop offset="0%" stop-color="#e6844e"></stop><stop offset="100%" stop-color="#50403a"></stop></linearGradient></defs><g><g fill="#ffffff" transform="matrix(4.977777777777778,0,0,4.977777777777778,13.463520871268372,135.37148429022895)" stroke="#c8512e" stroke-width="0"><path d="M10.75-14.22L10.75-12.46L5.44 0L1.96 0L7.29-11.68L0.51-11.68L0.51-14.22L10.75-14.22ZM16.08-14.22L16.08-2.64L22.05-2.64L22.05 0L12.66 0L12.66-14.22L16.08-14.22ZM30.83-3.78L30.83-3.78Q30.83-4.53 30.30-4.95Q29.77-5.37 28.43-5.82Q27.09-6.27 26.24-6.69L26.24-6.69Q23.48-8.05 23.48-10.42L23.48-10.42Q23.48-11.60 24.17-12.50Q24.85-13.41 26.11-13.91Q27.37-14.41 28.95-14.41L28.95-14.41Q30.48-14.41 31.69-13.87Q32.91-13.32 33.58-12.31Q34.26-11.30 34.26-10L34.26-10L30.84-10Q30.84-10.87 30.31-11.35Q29.78-11.83 28.87-11.83L28.87-11.83Q27.95-11.83 27.42-11.42Q26.88-11.02 26.88-10.39L26.88-10.39Q26.88-9.84 27.47-9.40Q28.06-8.96 29.53-8.48Q31.01-8.01 31.95-7.46L31.95-7.46Q34.26-6.13 34.26-3.80L34.26-3.80Q34.26-1.93 32.85-0.87Q31.45 0.20 28.99 0.20L28.99 0.20Q27.27 0.20 25.86-0.42Q24.46-1.04 23.75-2.12Q23.05-3.20 23.05-4.61L23.05-4.61L26.48-4.61Q26.48-3.47 27.08-2.92Q27.67-2.38 28.99-2.38L28.99-2.38Q29.84-2.38 30.34-2.75Q30.83-3.12 30.83-3.78Z"></path></g></g></svg>