<svg xmlns="http://www.w3.org/2000/svg" xmlns:xlink="http://www.w3.org/1999/xlink" width="40" zoomAndPan="magnify" viewBox="0 0 30 30.000001" height="40" preserveAspectRatio="xMidYMid meet" version="1.0"><defs><clipPath id="b6f9bd4935"><path d="M 2.632812 4.636719 L 27.3125 4.636719 L 27.3125 24.234375 L 2.632812 24.234375 Z M 2.632812 4.636719 " clip-rule="nonzero"/></clipPath></defs><g clip-path="url(#b6f9bd4935)"><path fill="#e6844e" d="M 8.253906 14.785156 L 2.652344 18.316406 L 2.652344 10.589844 Z M 27.332031 6.183594 L 27.332031 6.738281 L 14.992188 15.980469 L 2.652344 6.738281 L 2.652344 6.183594 C 2.652344 5.332031 3.34375 4.640625 4.195312 4.640625 L 25.789062 4.640625 C 26.640625 4.640625 27.332031 5.332031 27.332031 6.183594 Z M 21.730469 14.785156 L 27.332031 10.589844 L 27.332031 18.316406 Z M 19.089844 16.761719 L 27.332031 21.980469 L 27.332031 22.84375 C 27.332031 23.695312 26.640625 24.386719 25.789062 24.386719 L 4.195312 24.386719 C 3.34375 24.386719 2.652344 23.695312 2.652344 22.84375 L 2.652344 21.980469 L 10.894531 16.761719 L 14.066406 19.140625 C 14.339844 19.351562 14.671875 19.449219 14.992188 19.449219 C 15.3125 19.449219 15.644531 19.351562 15.917969 19.140625 Z M 19.089844 16.761719 " fill-opacity="1" fill-rule="nonzero"/></g></svg>