<svg xmlns="http://www.w3.org/2000/svg" xmlns:xlink="http://www.w3.org/1999/xlink" width="40" zoomAndPan="magnify" viewBox="0 0 30 30.000001" height="40" preserveAspectRatio="xMidYMid meet" version="1.0"><defs><clipPath id="bf123f411c"><path d="M 0.6875 0.203125 L 28.992188 0.203125 L 28.992188 28.507812 L 0.6875 28.507812 Z M 0.6875 0.203125 " clip-rule="nonzero"/></clipPath></defs><path fill="#e6844e" d="M 18.460938 20.207031 L 17.921875 19.96875 C 17.800781 19.90625 17.648438 19.9375 17.527344 20.027344 C 16.957031 20.539062 16.445312 20.78125 16.050781 20.902344 C 15.691406 21.023438 15.359375 20.691406 15.449219 20.328125 L 17.710938 11.921875 C 17.738281 11.773438 17.738281 11.589844 17.648438 11.472656 C 17.527344 11.289062 17.347656 11.167969 17.136719 11.167969 C 17.105469 11.167969 17.078125 11.167969 17.046875 11.167969 L 12.558594 11.921875 C 12.257812 11.984375 12.046875 12.253906 12.074219 12.585938 L 12.136719 13.066406 C 12.164062 13.339844 12.40625 13.550781 12.707031 13.550781 L 13.492188 13.550781 L 11.414062 21.144531 C 11.414062 21.144531 11.414062 21.144531 11.414062 21.171875 C 11.351562 21.503906 11.320312 22.015625 11.59375 22.527344 C 12.105469 23.492188 13.070312 23.671875 14.0625 23.671875 C 16.566406 23.671875 18.101562 21.714844 18.613281 20.660156 C 18.734375 20.511719 18.644531 20.300781 18.460938 20.207031 Z M 18.460938 20.207031 " fill-opacity="1" fill-rule="nonzero"/><path fill="#e6844e" d="M 16.382812 10.113281 C 17.679688 10.113281 18.734375 9.058594 18.734375 7.765625 C 18.734375 6.46875 17.679688 5.414062 16.382812 5.414062 C 15.089844 5.414062 14.035156 6.46875 14.035156 7.765625 C 14.035156 9.058594 15.089844 10.113281 16.382812 10.113281 Z M 16.382812 10.113281 " fill-opacity="1" fill-rule="nonzero"/><g clip-path="url(#bf123f411c)"><path fill="#e6844e" d="M 14.996094 0.203125 C 7.105469 0.203125 0.6875 6.621094 0.6875 14.515625 C 0.6875 22.40625 7.105469 28.824219 14.996094 28.824219 C 22.890625 28.824219 29.308594 22.40625 29.308594 14.515625 C 29.308594 6.621094 22.890625 0.203125 14.996094 0.203125 Z M 14.996094 26.6875 C 8.277344 26.6875 2.824219 21.234375 2.824219 14.515625 C 2.824219 7.792969 8.277344 2.339844 14.996094 2.339844 C 21.71875 2.339844 27.171875 7.792969 27.171875 14.515625 C 27.171875 21.234375 21.71875 26.6875 14.996094 26.6875 Z M 14.996094 26.6875 " fill-opacity="1" fill-rule="nonzero"/></g></svg>