<svg xmlns="http://www.w3.org/2000/svg" xmlns:xlink="http://www.w3.org/1999/xlink" width="40" zoomAndPan="magnify" viewBox="0 0 30 30.000001" height="40" preserveAspectRatio="xMidYMid meet" version="1.0"><defs><clipPath id="b9660e93eb"><path d="M 1.480469 0 L 28.335938 0 L 28.335938 29.03125 L 1.480469 29.03125 Z M 1.480469 0 " clip-rule="nonzero"/></clipPath></defs><g clip-path="url(#b9660e93eb)"><path fill="#e6844e" d="M 15 0.0078125 C 10.527344 0.0078125 6.871094 3.59375 6.871094 8.003906 C 6.871094 11.503906 8.480469 14.867188 10.199219 17.855469 C 11.917969 20.84375 13.769531 23.507812 14.371094 25.3125 C 14.414062 25.449219 14.496094 25.5625 14.609375 25.648438 C 14.726562 25.730469 14.855469 25.773438 15 25.773438 C 15.144531 25.773438 15.273438 25.730469 15.390625 25.648438 C 15.503906 25.5625 15.585938 25.449219 15.628906 25.3125 C 16.230469 23.507812 18.082031 20.84375 19.800781 17.855469 C 21.519531 14.867188 23.128906 11.503906 23.128906 8.003906 C 23.128906 3.59375 19.472656 0.0078125 15 0.0078125 Z M 15 1.328125 C 18.773438 1.328125 21.8125 4.320312 21.8125 8.003906 C 21.8125 11.097656 20.339844 14.285156 18.65625 17.207031 C 17.332031 19.507812 15.910156 21.59375 15 23.449219 C 14.089844 21.59375 12.667969 19.507812 11.34375 17.207031 C 9.660156 14.285156 8.1875 11.097656 8.1875 8.003906 C 8.1875 4.320312 11.226562 1.328125 15 1.328125 Z M 15 3.675781 C 12.589844 3.675781 10.609375 5.617188 10.609375 8.003906 C 10.609375 10.390625 12.589844 12.320312 15 12.320312 C 17.410156 12.320312 19.390625 10.390625 19.390625 8.003906 C 19.390625 5.617188 17.410156 3.675781 15 3.675781 Z M 15 4.996094 C 16.710938 4.996094 18.070312 6.34375 18.070312 8.003906 C 18.070312 9.664062 16.710938 11.003906 15 11.003906 C 13.289062 11.003906 11.929688 9.664062 11.929688 8.003906 C 11.929688 6.34375 13.289062 4.996094 15 4.996094 Z M 9.601562 19.894531 C 9.570312 19.894531 9.539062 19.898438 9.507812 19.90625 C 7.257812 20.238281 5.34375 20.769531 3.933594 21.460938 C 3.226562 21.808594 2.648438 22.199219 2.214844 22.65625 C 1.777344 23.113281 1.480469 23.679688 1.480469 24.292969 C 1.480469 25.136719 2.015625 25.851562 2.757812 26.40625 C 3.503906 26.960938 4.496094 27.414062 5.707031 27.796875 C 8.125 28.5625 11.394531 29.023438 15 29.023438 C 18.605469 29.023438 21.875 28.5625 24.292969 27.796875 C 25.503906 27.414062 26.496094 26.960938 27.242188 26.40625 C 27.984375 25.851562 28.519531 25.136719 28.519531 24.292969 C 28.519531 23.679688 28.222656 23.113281 27.785156 22.65625 C 27.351562 22.199219 26.773438 21.808594 26.066406 21.460938 C 24.65625 20.769531 22.742188 20.238281 20.492188 19.90625 C 20.3125 19.878906 20.148438 19.917969 20 20.027344 C 19.851562 20.136719 19.765625 20.28125 19.738281 20.460938 C 19.710938 20.640625 19.753906 20.804688 19.863281 20.953125 C 19.96875 21.101562 20.113281 21.1875 20.296875 21.214844 C 22.453125 21.535156 24.269531 22.046875 25.488281 22.644531 C 26.097656 22.945312 26.550781 23.269531 26.828125 23.5625 C 27.105469 23.855469 27.199219 24.089844 27.199219 24.292969 C 27.199219 24.574219 27.015625 24.925781 26.457031 25.34375 C 25.898438 25.761719 25.007812 26.1875 23.890625 26.539062 C 21.65625 27.25 18.496094 27.703125 15 27.703125 C 11.503906 27.703125 8.34375 27.25 6.109375 26.539062 C 4.992188 26.1875 4.101562 25.761719 3.542969 25.34375 C 2.984375 24.925781 2.800781 24.574219 2.800781 24.292969 C 2.800781 24.089844 2.894531 23.855469 3.171875 23.5625 C 3.449219 23.269531 3.902344 22.945312 4.511719 22.644531 C 5.730469 22.046875 7.546875 21.535156 9.703125 21.214844 C 9.882812 21.195312 10.03125 21.117188 10.148438 20.980469 C 10.261719 20.84375 10.3125 20.683594 10.300781 20.503906 C 10.285156 20.324219 10.210938 20.175781 10.074219 20.054688 C 9.9375 19.9375 9.78125 19.882812 9.601562 19.894531 Z M 9.601562 19.894531 " fill-opacity="1" fill-rule="nonzero"/></g></svg>