<svg xmlns="http://www.w3.org/2000/svg" xmlns:xlink="http://www.w3.org/1999/xlink" width="40" zoomAndPan="magnify" viewBox="0 0 30 30.000001" height="40" preserveAspectRatio="xMidYMid meet" version="1.0"><defs><clipPath id="c10a4ccc1b"><path d="M 1.9375 1.453125 L 28.066406 1.453125 L 28.066406 27.582031 L 1.9375 27.582031 Z M 1.9375 1.453125 " clip-rule="nonzero"/></clipPath></defs><g clip-path="url(#c10a4ccc1b)"><path fill="#e6844e" d="M 8.734375 1.457031 C 8.441406 1.441406 8.140625 1.480469 7.847656 1.582031 L 5.464844 2.398438 C 2.808594 3.3125 1.3125 6.203125 2.183594 8.886719 C 3.195312 11.996094 5.210938 16.367188 9.175781 20.332031 C 13.140625 24.292969 17.511719 26.308594 20.621094 27.324219 C 23.304688 28.195312 26.195312 26.699219 27.105469 24.042969 L 27.925781 21.660156 C 27.925781 21.660156 27.929688 21.660156 27.929688 21.660156 C 28.328125 20.488281 27.75 19.1875 26.613281 18.699219 L 22.195312 16.804688 C 21.210938 16.382812 20.058594 16.605469 19.296875 17.367188 L 17.488281 19.171875 C 16.867188 18.875 15.433594 18.121094 13.410156 16.097656 C 11.386719 14.074219 10.632812 12.640625 10.335938 12.019531 L 12.140625 10.210938 C 12.898438 9.449219 13.125 8.296875 12.703125 7.308594 L 10.804688 2.894531 L 10.804688 2.890625 C 10.441406 2.039062 9.617188 1.5 8.734375 1.457031 Z M 8.484375 3.433594 C 8.699219 3.359375 8.914062 3.453125 9.003906 3.664062 L 10.902344 8.082031 C 11.011719 8.335938 10.953125 8.628906 10.753906 8.824219 L 8.4375 11.144531 C 8.300781 11.28125 8.210938 11.449219 8.171875 11.640625 C 8.132812 11.832031 8.148438 12.019531 8.222656 12.203125 C 8.222656 12.203125 9.25 14.710938 12.023438 17.484375 C 14.796875 20.257812 17.304688 21.285156 17.304688 21.285156 C 17.484375 21.355469 17.671875 21.375 17.867188 21.335938 C 18.058594 21.296875 18.222656 21.207031 18.363281 21.066406 L 20.679688 18.75 C 20.878906 18.554688 21.167969 18.496094 21.425781 18.605469 L 25.84375 20.5 C 26.050781 20.589844 26.148438 20.804688 26.074219 21.023438 L 25.253906 23.40625 C 24.679688 25.082031 22.898438 26 21.226562 25.457031 C 18.332031 24.515625 14.25 22.632812 10.5625 18.945312 C 6.871094 15.253906 4.992188 11.171875 4.050781 8.28125 C 3.507812 6.609375 4.425781 4.824219 6.101562 4.25 Z M 8.484375 3.433594 " fill-opacity="1" fill-rule="nonzero"/></g></svg>